<svg xmlns="http://www.w3.org/2000/svg" id="Layer_1" data-name="Layer 1" viewBox="0 0 500 500"><defs><style>      .cls-1 {        fill: #fff;      }    </style></defs><path class="cls-1" d="m344.35,233.64c.61-4.77.92-9.62.92-14.55,0-63.3-51.5-114.79-114.79-114.79s-114.79,51.5-114.79,114.79c0,56.79,41.46,104.07,95.7,113.19,10.75,36.61,44.64,63.42,84.68,63.42,48.66,0,88.24-39.59,88.24-88.24,0-30.85-15.91-58.04-39.96-73.82Zm-203.66-14.55c0-49.51,40.28-89.79,89.79-89.79s89.79,40.28,89.79,89.79c0,1.17-.03,2.33-.07,3.48-7.67-2.18-15.77-3.35-24.13-3.35-48.16,0-87.43,38.79-88.22,86.77-38.59-10.06-67.16-45.2-67.16-86.9Zm92.14,88.37c0-34.87,28.37-63.24,63.24-63.24,6.86,0,13.45,1.11,19.64,3.14-11.63,34.99-44.24,60.48-82.85,61.49,0-.46-.04-.92-.04-1.39Zm63.24,63.24c-25.56,0-47.6-15.25-57.57-37.11,45.42-3.15,83.65-32.84,99.25-73.64,13.21,11.6,21.57,28.59,21.57,47.51,0,34.87-28.37,63.24-63.24,63.24Z"></path></svg>