<svg xmlns="http://www.w3.org/2000/svg" id="Layer_1" data-name="Layer 1" viewBox="0 0 500 500"><defs><style>      .cls-1 {        fill: #fff;      }    </style></defs><path class="cls-1" d="m306.15,192.38v-88.08H104.3v201.85h88.08c6.18,50.4,49.24,89.55,101.28,89.55,56.27,0,102.05-45.78,102.05-102.05,0-52.04-39.16-95.1-89.55-101.28Zm-176.85-63.08h151.85v63.08c-46.29,5.68-83.09,42.48-88.78,88.77h-63.08v-151.85Zm151.85,88.34v63.51h-63.51c5.33-32.48,31.03-58.18,63.51-63.51Zm12.5,153.06c-38.23,0-70.03-27.99-76.02-64.55h88.51v-88.51c36.56,5.99,64.55,37.79,64.55,76.02,0,42.48-34.56,77.05-77.05,77.05Z"></path></svg>