<svg xmlns="http://www.w3.org/2000/svg" id="Layer_1" data-name="Layer 1" viewBox="0 0 500 500"><defs><style>      .cls-1 {        fill: #fff;      }    </style></defs><path class="cls-1" d="m406.02,186.85c-5.87-3.63-13.57-1.82-17.21,4.06l-13.98,22.6c-16.24-62.74-73.33-109.21-141.08-109.21-80.34,0-145.7,65.36-145.7,145.7s65.36,145.7,145.7,145.7c6.9,0,12.5-5.6,12.5-12.5s-5.6-12.5-12.5-12.5c-66.56,0-120.7-54.15-120.7-120.7s54.15-120.7,120.7-120.7c58.38,0,107.2,41.66,118.32,96.81l-31.07-19.21c-5.87-3.63-13.57-1.82-17.21,4.06-3.63,5.87-1.82,13.57,4.06,17.21l52.52,32.48c.13.08.25.15.38.22.11.06.22.13.33.19.3.16.61.31.93.45.09.04.18.07.27.11.26.11.52.2.79.29.1.03.19.06.29.09.73.22,1.47.37,2.21.45.07,0,.13.01.2.02.39.04.78.06,1.17.06.04,0,.07,0,.11,0,.45,0,.9-.03,1.34-.08.13-.02.26-.04.39-.06.36-.05.72-.12,1.06-.2.13-.03.26-.07.39-.1.36-.1.72-.21,1.07-.34.1-.04.21-.07.31-.11.45-.18.89-.38,1.31-.61.03-.02.06-.04.1-.06.38-.21.74-.44,1.09-.69.14-.1.27-.2.4-.3.25-.19.5-.4.74-.61.13-.11.25-.22.38-.34.34-.33.67-.67.97-1.04.02-.03.05-.06.07-.09.29-.36.56-.75.81-1.14.03-.05.06-.09.09-.13l32.48-52.52c3.63-5.87,1.82-13.57-4.06-17.21Z"></path></svg>