<svg xmlns="http://www.w3.org/2000/svg" id="Layer_1" data-name="Layer 1" viewBox="0 0 500 500"><defs><style>      .cls-1 {        fill: #fff;      }    </style></defs><path class="cls-1" d="m250,104.3c-80.34,0-145.7,65.36-145.7,145.7s65.36,145.7,145.7,145.7,145.7-65.36,145.7-145.7-65.36-145.7-145.7-145.7Zm-120.7,145.7c0-62.34,47.5-113.79,108.2-120.06v116.29l-64.3,96.82c-26.8-22.16-43.9-55.64-43.9-93.05Zm120.7,120.7c-20.2,0-39.25-4.99-55.99-13.8l68.49-103.13v-123.83c60.71,6.27,108.2,57.72,108.2,120.06,0,66.56-54.15,120.7-120.7,120.7Z"></path></svg>