<?xml version="1.0" encoding="UTF-8"?>
<svg xmlns="http://www.w3.org/2000/svg" id="Layer_2" data-name="Layer 2" viewBox="0 0 221.28 61.76">
  <defs>
    <style>
      .cls-1 {
        fill: #090b0b;
      }
    </style>
  </defs>
  <g id="Layer_3" data-name="Layer 3">
    <g>
      <g>
        <g>
          <path class="cls-1" d="m17.4,50.44c-8.16-2.92-14.01-10.72-14.01-19.87,0-10.13,7.17-18.61,16.71-20.63l1.62-3.69c-5.49.61-10.58,3.05-14.54,7.02C2.55,17.88,0,24.03,0,30.57s2.55,12.69,7.17,17.31c2.82,2.82,6.21,4.87,9.91,6.04l.32-3.48h0Z"></path>
          <path class="cls-1" d="m41.8,13.26c-2.81-2.81-6.18-4.85-9.86-6.02l-.32,3.48c8.13,2.93,13.97,10.72,13.97,19.85,0,10.02-7.02,18.43-16.4,20.57l-1.64,3.73c5.38-.67,10.36-3.09,14.26-6.98,4.62-4.62,7.17-10.77,7.17-17.31s-2.55-12.69-7.17-17.31h0Z"></path>
        </g>
        <path class="cls-1" d="m37.61,25.53l-15.48,35.25c-.3.68-.86.98-1.41.98-.86,0-1.71-.72-1.61-1.89l2.01-22c.05-.5-.32-.91-.76-.91-.05,0-.11,0-.17.02l-7.06,1.67c-.12.03-.24.04-.35.04-1.13,0-1.95-1.29-1.43-2.46L26.83.98c.3-.68.85-.98,1.41-.98.86,0,1.71.72,1.61,1.89l-2.01,22.03c-.05.49.32.9.75.9.05,0,.11,0,.16-.02l7.09-1.67c.12-.03.24-.04.35-.04,1.12,0,1.94,1.28,1.42,2.45h0Z"></path>
      </g>
      <g>
        <g>
          <path class="cls-1" d="m65.49,41.03c-2.33-.55-4.23-1.29-5.73-2.22l3.21-7.27c1.41.82,2.99,1.47,4.73,1.97,1.75.49,3.42.74,5.03.74,1.38,0,2.37-.13,2.96-.4.59-.27.89-.67.89-1.21,0-.62-.39-1.09-1.16-1.4-.78-.31-2.05-.65-3.83-1.01-2.28-.48-4.18-.99-5.71-1.54-1.52-.55-2.85-1.45-3.97-2.71-1.13-1.25-1.69-2.95-1.69-5.09,0-1.86.52-3.55,1.57-5.07,1.04-1.52,2.6-2.72,4.67-3.59,2.07-.87,4.59-1.31,7.55-1.31,2.03,0,4.02.22,5.98.66,1.96.44,3.68,1.08,5.18,1.92l-3,7.23c-2.9-1.46-5.65-2.2-8.24-2.2s-3.85.62-3.85,1.86c0,.59.38,1.04,1.14,1.33.76.3,2.01.61,3.76.95,2.25.42,4.16.91,5.71,1.46,1.55.55,2.9,1.44,4.04,2.68,1.14,1.24,1.71,2.93,1.71,5.07,0,1.86-.52,3.54-1.57,5.05-1.04,1.51-2.6,2.7-4.67,3.59-2.07.89-4.59,1.33-7.55,1.33-2.45,0-4.84-.27-7.17-.83h0Z"></path>
          <path class="cls-1" d="m175.98,31.37l-2.24,2.49v7.31h-9.81V11.59h9.81v10.74l9.72-10.74h10.86l-11.84,13.02,12.43,16.57h-11.54l-7.4-9.81h0Z"></path>
          <path class="cls-1" d="m221.28,33.65v7.52h-24.6V11.59h24.05v7.52h-14.24v3.47h12.51v7.18h-12.51v3.89h14.79Z"></path>
          <path class="cls-1" d="m139.08,32.04c1.8-.93,3.18-2.18,4.14-3.76.96-1.58,1.44-3.42,1.44-5.54,0-2.25-.55-4.23-1.65-5.92-1.1-1.69-2.66-2.98-4.69-3.89-2.03-.9-4.41-1.36-7.14-1.36h-14.25v29.59h9.98v-21.9h3.64c1.35,0,2.37.3,3.04.91.68.61,1.01,1.46,1.01,2.56s-.34,1.95-1.01,2.56c-.68.61-1.69.91-3.04.91h-.93v7.52l5.03,7.44h10.65l-6.21-9.13h0Z"></path>
          <polygon class="cls-1" points="109.27 11.59 87.24 11.59 87.24 19.32 95.9 19.32 95.9 41.18 105.88 41.18 105.88 19.32 114.53 19.32 109.27 11.59"></polygon>
          <polygon class="cls-1" points="148.7 11.59 148.7 33.96 153.6 41.18 158.67 41.18 158.67 11.59 148.7 11.59"></polygon>
        </g>
        <g>
          <path class="cls-1" d="m108.08,45.86l-4.82,11.14h-2.55l-4.81-11.14h2.78l3.39,7.96,3.44-7.96h2.56Z"></path>
          <path class="cls-1" d="m113.9,45.86h2.58v11.14h-2.58v-11.14Z"></path>
          <path class="cls-1" d="m124.91,56.83c-.82-.24-1.48-.55-1.98-.93l.88-1.94c.48.35,1.04.63,1.7.84.66.21,1.32.32,1.97.32.73,0,1.27-.11,1.62-.33.35-.22.52-.51.52-.87,0-.27-.1-.49-.31-.66s-.47-.32-.8-.42c-.32-.11-.76-.22-1.31-.35-.85-.2-1.54-.4-2.08-.6-.54-.2-1-.52-1.39-.97s-.58-1.04-.58-1.78c0-.65.17-1.23.52-1.76.35-.52.88-.94,1.58-1.25s1.57-.46,2.59-.46c.71,0,1.41.09,2.08.25.68.17,1.27.41,1.78.73l-.8,1.96c-1.03-.58-2.06-.88-3.09-.88-.72,0-1.25.12-1.6.35-.35.23-.52.54-.52.92s.2.67.6.85c.4.19,1,.37,1.82.55.85.2,1.54.4,2.08.6.54.2,1,.52,1.39.95s.58,1.02.58,1.77c0,.64-.18,1.22-.53,1.74s-.89.94-1.6,1.25c-.71.31-1.58.46-2.59.46-.88,0-1.73-.12-2.55-.36h0Z"></path>
          <path class="cls-1" d="m139.76,55.86c-.89-.88-1.33-2.14-1.33-3.77v-6.24h2.58v6.14c0,1.99.83,2.99,2.48,2.99.81,0,1.42-.24,1.85-.72.42-.48.64-1.24.64-2.27v-6.14h2.55v6.24c0,1.63-.44,2.89-1.33,3.77-.89.88-2.12,1.32-3.72,1.32s-2.83-.44-3.72-1.32h0Z"></path>
          <path class="cls-1" d="m162.46,54.61h-5.17l-.99,2.39h-2.64l4.96-11.14h2.55l4.98,11.14h-2.71l-.99-2.39Zm-.81-1.96l-1.77-4.26-1.77,4.26h3.53,0Z"></path>
          <path class="cls-1" d="m171.96,45.86h2.58v9.04h5.58v2.1h-8.16v-11.14h0Z"></path>
          <path class="cls-1" d="m187.64,56.83c-.82-.24-1.48-.55-1.98-.93l.88-1.94c.48.35,1.04.63,1.7.84.66.21,1.32.32,1.97.32.73,0,1.27-.11,1.62-.33.35-.22.52-.51.52-.87,0-.27-.1-.49-.31-.66s-.47-.32-.8-.42c-.32-.11-.76-.22-1.31-.35-.85-.2-1.54-.4-2.08-.6-.54-.2-1-.52-1.39-.97s-.58-1.04-.58-1.78c0-.65.17-1.23.52-1.76.35-.52.88-.94,1.58-1.25s1.57-.46,2.59-.46c.71,0,1.41.09,2.08.25.68.17,1.27.41,1.78.73l-.8,1.96c-1.03-.58-2.06-.88-3.09-.88-.72,0-1.25.12-1.6.35-.35.23-.52.54-.52.92s.2.67.6.85c.4.19,1,.37,1.82.55.85.2,1.54.4,2.08.6.54.2,1,.52,1.39.95s.58,1.02.58,1.77c0,.64-.18,1.22-.53,1.74s-.89.94-1.6,1.25c-.71.31-1.58.46-2.59.46-.88,0-1.73-.12-2.55-.36h0Z"></path>
        </g>
      </g>
    </g>
  </g>
</svg>
