<svg xmlns="http://www.w3.org/2000/svg" width="96" height="96" viewBox="0 0 96 96" fill="none"><path d="M30.0864 56.0322H30.0288C29.2352 55.661 28.352 55.4562 27.4176 55.4562C26.4832 55.4562 25.6064 55.661 24.8064 56.0322H24.7488C25.5552 55.6482 26.464 55.437 27.4112 55.437C28.3584 55.437 29.2672 55.6482 30.08 56.0322H30.0864Z" stroke="#090B0B" stroke-width="2" stroke-linecap="round" stroke-linejoin="round"></path><path d="M79.6096 45.1008V56.032H76.1344C74.3872 53.632 71.552 52.0704 68.3584 52.0704C65.1648 52.0704 62.3296 53.632 60.5824 56.032H35.1936C33.4464 53.632 30.6112 52.0704 27.4176 52.0704C24.224 52.0704 21.3888 53.632 19.6416 56.032H16.3904V29.0752H67.5968L72.3584 40.5504L79.6096 45.0944V45.1008Z" stroke="#090B0B" stroke-width="2" stroke-linecap="round" stroke-linejoin="round"></path><path d="M19.6416 56.0322C18.7584 57.2418 18.1568 58.6626 17.92 60.2114H13.5681V56.0322H19.6416Z" stroke="#090B0B" stroke-width="2" stroke-linecap="round" stroke-linejoin="round"></path><path d="M60.5824 56.0322C59.6992 57.2418 59.0976 58.6626 58.8608 60.2114H36.9152C36.6784 58.669 36.0768 57.2418 35.1936 56.0322H60.5824Z" stroke="#090B0B" stroke-width="2" stroke-linecap="round" stroke-linejoin="round"></path><path d="M82.432 56.0322V60.2114H77.856C77.6192 58.669 77.0176 57.2418 76.1344 56.0322H82.432Z" stroke="#090B0B" stroke-width="2" stroke-linecap="round" stroke-linejoin="round"></path><path d="M37.0304 61.6836H33.664C33.664 61.178 33.6064 60.6852 33.4848 60.2116C33.0368 58.362 31.7696 56.8324 30.08 56.0324C29.2736 55.6484 28.3648 55.4372 27.4112 55.4372C26.4576 55.4372 25.5552 55.6484 24.7488 56.0324C23.0592 56.826 21.792 58.3556 21.344 60.2116C21.2288 60.6852 21.1648 61.178 21.1648 61.6836H17.7984C17.7984 61.1844 17.8368 60.6916 17.9072 60.2116C18.144 58.6692 18.7456 57.242 19.6288 56.0324C21.376 53.6324 24.2112 52.0708 27.4048 52.0708C30.5984 52.0708 33.4336 53.6324 35.1808 56.0324C36.064 57.242 36.6656 58.6628 36.9024 60.2116C36.9792 60.6916 37.0112 61.1844 37.0112 61.6836H37.0304Z" stroke="#090B0B" stroke-width="2" stroke-linecap="round" stroke-linejoin="round"></path><path d="M31.8528 62.4831C31.8528 64.9343 29.8688 66.9183 27.4176 66.9183C24.9664 66.9183 22.9824 64.9343 22.9824 62.4831C22.9824 62.1247 23.0272 61.7727 23.1104 61.4335C23.424 60.1151 24.3328 59.0335 25.5296 58.4639C26.1056 58.1887 26.7456 58.0415 27.424 58.0415C28.1024 58.0415 28.7424 58.1951 29.3184 58.4639C30.5152 59.0271 31.4176 60.1151 31.7376 61.4335C31.8208 61.7663 31.8656 62.1183 31.8656 62.4831H31.8528Z" stroke="#090B0B" stroke-width="2" stroke-linecap="round" stroke-linejoin="round"></path><path d="M72.8001 62.4831C72.8001 64.9343 70.816 66.9183 68.3648 66.9183C65.9136 66.9183 63.9296 64.9343 63.9296 62.4831C63.9296 62.1247 63.9744 61.7727 64.0576 61.4335C64.3712 60.1151 65.28 59.0335 66.4768 58.4639C67.0528 58.1887 67.6928 58.0415 68.3712 58.0415C69.0496 58.0415 69.6896 58.1951 70.2656 58.4639C71.4624 59.0271 72.3648 60.1151 72.6848 61.4335C72.768 61.7663 72.8128 62.1183 72.8128 62.4831H72.8001Z" stroke="#090B0B" stroke-width="2" stroke-linecap="round" stroke-linejoin="round"></path><path d="M77.9712 61.6836H74.6048C74.6048 61.178 74.5472 60.6852 74.4256 60.2116C74.4 60.0964 74.3681 59.9812 74.3297 59.866C74.2657 59.642 74.1825 59.418 74.0865 59.2068C74.0481 59.1108 74.0032 59.0212 73.9584 58.9316C73.9456 58.8996 73.9265 58.8676 73.9137 58.8356C73.8689 58.746 73.824 58.6628 73.7792 58.5796C73.7216 58.4772 73.6641 58.3812 73.6001 58.2852C73.5425 58.1956 73.4848 58.106 73.4208 58.0228C73.4144 58.01 73.408 57.9972 73.3952 57.9844C73.3952 57.9844 73.3952 57.978 73.3888 57.9716C73.3312 57.882 73.2673 57.8052 73.1969 57.722C73.1265 57.6324 73.0496 57.5428 72.9728 57.4596C72.896 57.3764 72.8129 57.2932 72.7297 57.21C72.6593 57.1396 72.5824 57.0628 72.5056 56.9988L72.448 56.9476C72.384 56.89 72.3137 56.8324 72.2433 56.7812C72.2241 56.762 72.2048 56.7492 72.1856 56.7364C72.1216 56.6852 72.0512 56.634 71.9808 56.5892C71.9616 56.57 71.9361 56.5572 71.9169 56.5444C71.9169 56.5444 71.904 56.538 71.904 56.5316C71.8208 56.4676 71.7376 56.4164 71.648 56.3652C71.552 56.3012 71.4496 56.2436 71.3472 56.1924C71.2448 56.1348 71.1425 56.0836 71.0337 56.0324C70.2273 55.6484 69.3184 55.4372 68.3712 55.4372C67.424 55.4372 66.5153 55.6484 65.7089 56.0324C65.6001 56.0836 65.4976 56.1348 65.3952 56.1924C65.2928 56.25 65.1904 56.3012 65.0944 56.3652C65.0048 56.4228 64.9152 56.4804 64.8256 56.5444C64.8064 56.5572 64.7808 56.57 64.7616 56.5892C64.6912 56.634 64.6272 56.6852 64.5568 56.7364C64.5376 56.7492 64.5184 56.762 64.4992 56.7812C64.4288 56.8388 64.3584 56.89 64.2944 56.9476C64.2752 56.9668 64.256 56.9796 64.2368 56.9988C64.16 57.0692 64.0832 57.1396 64.0128 57.21C63.9296 57.2868 63.8464 57.3764 63.7696 57.4596C63.6928 57.5428 63.616 57.6324 63.5456 57.722C63.4752 57.8052 63.4048 57.8948 63.3408 57.9844C63.328 57.9972 63.3216 58.01 63.3152 58.0228C63.2512 58.106 63.1936 58.1956 63.136 58.2852C63.072 58.3812 63.0144 58.4836 62.9568 58.5796C62.9056 58.6628 62.8608 58.746 62.8224 58.8356C62.8032 58.8676 62.7904 58.8996 62.7776 58.9316C62.7328 59.0212 62.688 59.1108 62.6496 59.2068C62.5792 59.3668 62.5152 59.5332 62.4576 59.6996C62.4384 59.7572 62.4192 59.8084 62.4064 59.866C62.368 59.9748 62.3361 60.09 62.3105 60.2116C62.1953 60.6852 62.1312 61.178 62.1312 61.6836H58.7648C58.7648 61.1844 58.8032 60.6916 58.88 60.2116C59.1168 58.6692 59.7184 57.242 60.6016 56.0324C62.3488 53.6324 65.184 52.0708 68.3776 52.0708C71.5712 52.0708 74.4065 53.6324 76.1537 56.0324C77.0369 57.242 77.6384 58.6628 77.8752 60.2116C77.952 60.6916 77.9904 61.1844 77.9904 61.6836H77.9712Z" stroke="#090B0B" stroke-width="2" stroke-linecap="round" stroke-linejoin="round"></path><path d="M72.3584 40.5507H59.488C58.5152 40.5507 57.728 39.7635 57.728 38.7907V34.6755C57.728 33.7027 58.5152 32.9155 59.488 32.9155H69.1392L72.3584 40.5507Z" stroke="#090B0B" stroke-width="2" stroke-linecap="round" stroke-linejoin="round"></path><path d="M38.2145 43.9873H23.4177V47.9745H38.2145V43.9873Z" fill="#C12354" stroke="#C12354" stroke-width="2" stroke-linecap="round" stroke-linejoin="round"></path></svg>