<svg xmlns="http://www.w3.org/2000/svg" width="96" height="96" viewBox="0 0 96 96" fill="none"><path d="M39.6288 25.9648H23.2256C22.2528 25.9648 21.4656 26.752 21.4656 27.7184V59.2448C21.4656 60.2176 22.2528 61.0048 23.2256 61.0048H72.768C73.7408 61.0048 74.528 60.2176 74.528 59.2448V27.7184C74.528 26.752 73.7408 25.9648 72.768 25.9648H56.3648" stroke="#090B0B" stroke-width="2" stroke-linecap="round" stroke-linejoin="round"></path><path d="M57.5168 29.7983H70.688V41.0943" stroke="#090B0B" stroke-width="2" stroke-linecap="round" stroke-linejoin="round"></path><path d="M70.6879 49.7599V57.1647H66.0543H63.2192H25.3055V51.7247V33.6831V29.7983H38.4768" stroke="#090B0B" stroke-width="2" stroke-linecap="round" stroke-linejoin="round"></path><path d="M48 36.2947C51.1564 36.2947 53.7152 33.7359 53.7152 30.5795C53.7152 27.423 51.1564 24.8643 48 24.8643C44.8436 24.8643 42.2848 27.423 42.2848 30.5795C42.2848 33.7359 44.8436 36.2947 48 36.2947Z" fill="#5E1982" stroke="#5E1982" stroke-width="2.5" stroke-linecap="round" stroke-linejoin="round"></path><path d="M36.1024 37.9199L44.6208 49.0815C41.536 51.4367 37.1328 50.8415 34.7776 47.7631C32.4224 44.6783 33.0176 40.2751 36.1024 37.9199Z" fill="#5E1982" stroke="#5E1982" stroke-width="2.5" stroke-linecap="round" stroke-linejoin="round"></path><path d="M69.3139 44.7398L60.9158 39.4839L55.6599 47.882L64.058 53.1379L69.3139 44.7398Z" fill="#5E1982" stroke="#5E1982" stroke-width="2.5" stroke-linecap="round" stroke-linejoin="round"></path></svg>